#!OML:ASF E:\Style6\Style6.ASF
:FULLY-SPECIFIED
:DEGREES
3177
root 0.610747 17.5963 -1.46155 21.3227 4.95721 3.37267
lowerback 11.1857 -3.19449 2.1461
upperback 14.2973 -4.43492 6.4612
thorax 9.58314 -2.42213 5.9371
lowerneck 10.1302 15.8159 -6.20845
upperneck 12.7198 20.5586 -6.075
head 2.61715 9.77591 -1.14542
rclavicle 1.90833e-014 5.56597e-015
rhumerus 9.33926 -4.58502 -79.0367
rradius 38.0605
rwrist 24.5624
rhand -4.90632 9.55516
rfingers 7.12502
rthumb 20.8834 -19.3408
lclavicle 1.90833e-014 5.56597e-015
lhumerus 57.9184 -7.73496 77.586
lradius 38.7317
lwrist -23.9101
lhand 10.9838 28.1372
lfingers 7.12502
lthumb 36.0588 54.4392
rfemur -46.3405 -6.90115 16.0793
rtibia 37.2243
rfoot -6.32735 -11.9036
rtoes -11.4404
lfemur -44.3444 2.2588 -24.2908
ltibia 33.4254
lfoot -5.5596 -2.50595
ltoes -18.7396
3178
root 0.609008 17.6003 -1.46072 21.3534 5.02748 3.32529
lowerback 11.1766 -3.21475 2.24401
upperback 14.2941 -4.45725 6.47185
thorax 9.5802 -2.42377 5.89391
lowerneck 10.1649 15.7438 -6.15397
upperneck 12.5101 20.4638 -6.21056
head 2.55902 9.7415 -1.20306
rclavicle 2.22639e-014 -9.54166e-015
rhumerus 9.33875 -4.59779 -79.068
rradius 38.0881
rwrist 24.628
rhand -4.94917 9.54997
rfingers 7.12502
rthumb 20.8422 -19.3505
lclavicle 2.22639e-014 -9.54166e-015
lhumerus 57.9684 -7.61979 77.8542
lradius 38.6742
lwrist -24.047
lhand 10.9043 28.1096
lfingers 7.12502
lthumb 35.9835 54.4302
rfemur -46.2955 -6.88089 16.1336
rtibia 37.1285
rfoot -6.32403 -11.9656
rtoes -11.3159
lfemur -44.3104 2.16472 -24.1849
ltibia 33.3026
lfoot -5.51423 -2.44385
ltoes -18.9195
3179
root 0.607675 17.6044 -1.45996 21.3773 5.10246 3.3011
lowerback 11.1929 -3.2403 2.34
upperback 14.2845 -4.48352 6.47295
thorax 9.55462 -2.42655 5.84253
lowerneck 10.3313 15.6492 -6.03108
upperneck 12.2121 20.3315 -6.44391
head 2.46806 9.6973 -1.31252
rclavicle 1.11319e-014 -5.32743e-014
rhumerus 9.35358 -4.61783 -79.0999
rradius 38.0767
rwrist 24.6763
rhand -4.96045 9.58628
rfingers 7.12502
rthumb 20.8314 -19.3154
lclavicle 1.11319e-014 -5.32743e-014
lhumerus 58.0276 -7.52127 78.0866
lradius 38.6484
lwrist -24.1059
lhand 10.8831 28.1574
lfingers 7.12502
lthumb 35.9634 54.4829
rfemur -46.2423 -6.88463 16.1712
rtibia 37.0352
rfoot -6.21736 -12.0571
rtoes -12.1019
lfemur -44.2765 2.05588 -24.1023
ltibia 33.1984
lfoot -5.42707 -2.38979
ltoes -18.9657
3180
root 0.604952 17.6076 -1.46118 21.429 5.17845 3.30206
lowerback 11.1985 -3.24921 2.39889
upperback 14.2655 -4.49012 6.48288
thorax 9.52588 -2.42375 5.82066
lowerneck 10.1178 15.578 -6.07566
upperneck 12.3763 20.2657 -6.35071
head 2.54038 9.65106 -1.25379
rclavicle -4.77083e-015 1.43125e-014
rhumerus 9.34492 -4.62313 -79.0985
rradius 38.1232
rwrist 24.6231
rhand -4.96852 9.52268
rfingers 7.12502
rthumb 20.8237 -19.3798
lclavicle -4.77083e-015 1.43125e-014
lhumerus 58.0927 -7.4705 78.3818
lradius 38.6449
lwrist -24.2269
lhand 10.9029 28.2692
lfingers 7.12502
lthumb 35.9822 54.5901
rfemur -46.2327 -6.88934 16.1823
rtibia 36.9368
rfoot -6.17425 -12.1288
rtoes -11.8872
lfemur -44.2997 1.97608 -24.0621
ltibia 33.1266
lfoot -5.40854 -2.39783
ltoes -18.9151
3181
root 0.600911 17.6117 -1.46236 21.4515 5.22898 3.30072
lowerback 11.2354 -3.24192 2.42381
upperback 14.2527 -4.47558 6.49697
thorax 9.48805 -2.41446 5.82361
lowerneck 10.0967 15.4898 -6.06999
upperneck 12.2378 20.1476 -6.37294
head 2.4958 9.59965 -1.26397
rclavicle -3.18055e-015 -1.74931e-014
rhumerus 9.32768 -4.66019 -79.1007
rradius 38.1694
rwrist 24.6022
rhand -4.92887 9.49143
rfingers 7.12502
rthumb 20.8618 -19.4069
lclavicle -3.18055e-015 -1.74931e-014
lhumerus 58.1726 -7.45125 78.6476
lradius 38.5933
lwrist -24.3063
lhand 10.8141 28.3653
lfingers 7.12502
lthumb 35.8981 54.7068
rfemur -46.1991 -6.84281 16.1731
rtibia 36.8426
rfoot -6.22591 -12.1872
rtoes -11.1064
lfemur -44.2824 1.93099 -24.028
ltibia 33.0505
lfoot -5.35655 -2.39822
ltoes -18.9379
3182
root 0.596994 17.6165 -1.46285 21.4919 5.28094 3.25272
lowerback 11.2535 -3.26165 2.49627
upperback 14.2325 -4.49548 6.51172
thorax 9.45198 -2.41761 5.80045
lowerneck 10.0681 15.445 -6.21546
upperneck 12.0545 20.0622 -6.30674
head 2.41221 9.56167 -1.23071
rclavicle -4.77083e-015 -2.14687e-014
rhumerus 9.31084 -4.62764 -79.1171
rradius 38.2248
rwrist 24.626
rhand -4.94822 9.49231
rfingers 7.12502
rthumb 20.8432 -19.4081
lclavicle -4.77083e-015 -2.14687e-014
lhumerus 58.2133 -7.37711 78.8343
lradius 38.5427
lwrist -24.3386
lhand 10.6719 28.3518
lfingers 7.12502
lthumb 35.7634 54.7261
rfemur -46.1866 -6.80593 16.2337
rtibia 36.7522
rfoot -6.24595 -12.2367
rtoes -10.9601
lfemur -44.2844 1.89484 -23.946
ltibia 32.9651
lfoot -5.28186 -2.38998
ltoes -19.1832
3183
root 0.594255 17.6179 -1.46301 21.5365 5.29305 3.2228
lowerback 11.2608 -3.2876 2.52979
upperback 14.2126 -4.52607 6.51439
thorax 9.42491 -2.42933 5.78554
lowerneck 9.86232 15.4595 -6.40513
upperneck 12.2107 20.0799 -6.06967
head 2.45068 9.5531 -1.11389
rclavicle 4.6118e-014 -1.74931e-014
rhumerus 9.32129 -4.54466 -79.1379
rradius 38.2291
rwrist 24.6351
rhand -4.94467 9.50286
rfingers 7.12502
rthumb 20.8466 -19.3972
lclavicle 4.6118e-014 -1.74931e-014
lhumerus 58.1888 -7.23118 79.1066
lradius 38.6135
lwrist -24.3423
lhand 10.79 28.476
lfingers 7.12502
lthumb 35.8753 54.823
rfemur -46.1928 -6.75109 16.2596
rtibia 36.669
rfoot -6.15553 -12.3199
rtoes -11.1763
lfemur -44.2914 1.86601 -23.884
ltibia 32.8732
lfoot -5.24873 -2.35903
ltoes -19.2641
3184
root 0.591271 17.6205 -1.4626 21.5715 5.2984 3.22359
lowerback 11.2347 -3.30074 2.5274
upperback 14.2042 -4.54486 6.51386
thorax 9.43179 -2.43875 5.78537
lowerneck 10.1725 15.4139 -6.45778
upperneck 11.7129 19.9472 -6.12665
head 2.23042 9.51664 -1.16933
rclavicle 2.38542e-014 -4.77083e-014
rhumerus 9.35729 -4.57052 -79.1907
rradius 38.1749
rwrist 24.7568
rhand -4.91592 9.56061
rfingers 7.12502
rthumb 20.8742 -19.3364
lclavicle 2.38542e-014 -4.77083e-014
lhumerus 58.1691 -7.1156 79.4074
lradius 38.7656
lwrist -24.2318
lhand 10.9518 28.6987
lfingers 7.12502
lthumb 36.0286 55.0082
rfemur -46.1883 -6.70371 16.2502
rtibia 36.595
rfoot -6.11139 -12.3976
rtoes -11.1452
lfemur -44.2736 1.81221 -23.8335
ltibia 32.775
lfoot -5.21733 -2.34002
ltoes -18.8505
3185
root 0.588488 17.6249 -1.46211 21.6067 5.28338 3.26346
lowerback 11.1985 -3.32045 2.49285
upperback 14.2147 -4.57456 6.48709
thorax 9.46704 -2.45522 5.77421
lowerneck 9.91168 15.4539 -6.7702
upperneck 11.8341 19.9786 -5.7187
head 2.23318 9.51284 -0.985422
rclavicle 3.02153e-014 3.65764e-014
rhumerus 9.43704 -4.55144 -79.2456
rradius 38.1007
rwrist 24.8432
rhand -4.86738 9.61298
rfingers 7.12502
rthumb 20.9208 -19.2789
lclavicle 3.02153e-014 3.65764e-014
lhumerus 58.1994 -6.98969 79.6362
lradius 38.8112
lwrist -24.1923
lhand 10.9419 28.745
lfingers 7.12502
lthumb 36.0191 55.0568
rfemur -46.1893 -6.67676 16.2034
rtibia 36.5361
rfoot -6.11922 -12.4249
rtoes -11.3822
lfemur -44.2376 1.78811 -23.8609
ltibia 32.6775
lfoot -5.14375 -2.32406
ltoes -18.8111
3186
root 0.585282 17.6278 -1.46054 21.6459 5.24579 3.35475
lowerback 11.1725 -3.30159 2.41082
upperback 14.2134 -4.55405 6.46022
thorax 9.48135 -2.45109 5.78855
lowerneck 9.52175 15.456 -7.03127
upperneck 12.1508 19.9973 -5.31796
head 2.3285 9.49321 -0.791628
rclavicle -1.59028e-014 -3.4191e-014
rhumerus 9.46435 -4.57652 -79.2471
rradius 38.0545
rwrist 24.8196
rhand -4.85994 9.6443
rfingers 7.12502
rthumb 20.928 -19.2467
lclavicle -1.59028e-014 -3.4191e-014
lhumerus 58.2443 -6.95768 79.9288
lradius 38.7546
lwrist -24.3256
lhand 10.7831 28.6912
lfingers 7.12502
lthumb 35.8687 55.0398
rfemur -46.1978 -6.63308 16.0832
rtibia 36.4908
rfoot -6.19173 -12.4573
rtoes -10.8686
lfemur -44.2041 1.7676 -23.9583
ltibia 32.5849
lfoot -5.09653 -2.26734
ltoes -19.3125
3187
root 0.582431 17.6303 -1.45939 21.7067 5.25941 3.41318
lowerback 11.1248 -3.31243 2.38277
upperback 14.202 -4.57153 6.4502
thorax 9.49751 -2.46144 5.79108
lowerneck 9.92313 15.3734 -6.90698
upperneck 11.5611 19.8374 -5.63815
head 2.11334 9.45328 -0.955808
rclavicle 4.13472e-014 3.57812e-014
rhumerus 9.4784 -4.5423 -79.2492
rradius 38.0329
rwrist 24.7457
rhand -4.97191 9.58505
rfingers 7.12502
rthumb 20.8204 -19.3178
lclavicle 4.13472e-014 3.57812e-014
lhumerus 58.2854 -6.88022 80.3245
lradius 38.699
lwrist -24.5069
lhand 10.7528 28.7077
lfingers 7.12502
lthumb 35.84 55.0633
rfemur -46.2361 -6.64164 16.0271
rtibia 36.4659
rfoot -6.18003 -12.4971
rtoes -10.5215
lfemur -44.2093 1.71591 -23.9985
ltibia 32.5056
lfoot -5.07264 -2.24648
ltoes -19.2482
3188
root 0.579777 17.6334 -1.45898 21.7177 5.29115 3.43397
lowerback 11.1552 -3.33658 2.36317
upperback 14.1962 -4.60141 6.45598
thorax 9.47909 -2.47853 5.8109
lowerneck 10.151 15.3385 -6.83757
upperneck 11.1945 19.7576 -5.79833
head 1.97839 9.43794 -1.04411
rclavicle 3.81667e-014 1.59028e-014
rhumerus 9.46373 -4.46002 -79.2485
rradius 38.1078
rwrist 24.6728
rhand -4.96937 9.47499
rfingers 7.12502
rthumb 20.8228 -19.4276
lclavicle 3.81667e-014 1.59028e-014
lhumerus 58.3121 -6.77267 80.6274
lradius 38.6918
lwrist -24.5585
lhand 10.6905 28.7842
lfingers 7.12502
lthumb 35.781 55.1542
rfemur -46.223 -6.66813 16.0291
rtibia 36.4499
rfoot -6.13189 -12.5185
rtoes -10.9142
lfemur -44.171 1.67267 -23.9874
ltibia 32.4354
lfoot -5.00462 -2.27373
ltoes -18.7455
3189
root 0.576153 17.6335 -1.45877 21.7368 5.26332 3.48316
lowerback 11.2018 -3.32502 2.28758
upperback 14.1841 -4.58528 6.45231
thorax 9.44264 -2.47758 5.8512
lowerneck 10.4008 15.2945 -6.78966
upperneck 10.7938 19.6567 -5.92721
head 1.82317 9.414 -1.12349
rclavicle -2.22639e-014 2.22639e-014
rhumerus 9.44746 -4.49286 -79.2693
rradius 38.1415
rwrist 24.7055
rhand -4.97422 9.5402
rfingers 7.12502
rthumb 20.8182 -19.3629
lclavicle -2.22639e-014 2.22639e-014
lhumerus 58.3008 -6.6883 80.977
lradius 38.7043
lwrist -24.6081
lhand 10.5133 28.756
lfingers 7.12502
lthumb 35.613 55.1667
rfemur -46.233 -6.641 15.9734
rtibia 36.435
rfoot -6.14999 -12.5223
rtoes -10.8646
lfemur -44.1693 1.64381 -24.0109
ltibia 32.3895
lfoot -4.96951 -2.24251
ltoes -18.4815
3190
root 0.572469 17.634 -1.45818 21.7553 5.2534 3.44382
lowerback 11.2459 -3.2974 2.32436
upperback 14.1596 -4.54326 6.47211
thorax 9.38365 -2.45389 5.85323
lowerneck 10.7338 15.2441 -6.78134
upperneck 10.3374 19.5279 -6.02853
head 1.63022 9.37947 -1.19849
rclavicle 2.06736e-014 -2.46493e-014
rhumerus 9.41028 -4.54676 -79.256
rradius 38.1586
rwrist 24.6134
rhand -4.97013 9.5534
rfingers 7.12502
rthumb 20.8221 -19.3493
lclavicle 2.06736e-014 -2.46493e-014
lhumerus 58.2748 -6.66335 81.3722
lradius 38.7168
lwrist -24.6381
lhand 10.3882 28.6815
lfingers 7.12502
lthumb 35.4945 55.1206
rfemur -46.2437 -6.5896 16.0118
rtibia 36.4099
rfoot -6.15453 -12.5014
rtoes -10.708
lfemur -44.1987 1.67623 -23.9691
ltibia 32.3796
lfoot -4.96214 -2.23512
ltoes -18.8134
